<?xml version="1.0" encoding="UTF-8"?>
<svg width="88px" height="88px" viewBox="0 0 88 88" version="1.1" xmlns="http://www.w3.org/2000/svg" xmlns:xlink="http://www.w3.org/1999/xlink">
    <!-- Generator: Sketch 52.6 (67491) - http://www.bohemiancoding.com/sketch -->
    <title>分组 6 copy</title>
    <desc>Created with Sketch.</desc>
    <defs>
        <linearGradient x1="50%" y1="0%" x2="50%" y2="100%" id="linearGradient-1">
            <stop stop-color="#FF6A22" offset="0%"></stop>
            <stop stop-color="#FD361A" offset="100%"></stop>
        </linearGradient>
    </defs>
    <g id="Page-1" stroke="none" stroke-width="1" fill="none" fill-rule="evenodd">
        <g id="分组-6-copy">
            <rect id="矩形-copy-4" fill="url(#linearGradient-1)" fill-rule="nonzero" x="0" y="0" width="88" height="88" rx="10"></rect>
            <path d="M27.864,58.54 C19.512,58.54 15.372,52.78 15.372,44.752 C15.372,36.256 20.088,27.508 28.692,27.508 C31.824,27.508 36.648,28.84 36.648,32.728 C36.648,34.816 35.208,36.004 32.94,36.004 C31.464,36.004 33.444,32.62 28.872,32.62 C23.184,32.62 21.204,39.064 21.204,44.068 C21.204,47.992 22.32,52.132 27.036,52.132 C29.268,52.132 31.68,51.196 31.68,48.676 C31.68,45.76 28.836,45.508 28.836,44.572 C28.836,44.104 35.028,41.872 35.46,41.872 C36.18,41.872 37.008,50.656 37.008,51.736 C37.008,56.452 32.328,58.54 27.864,58.54 Z M52.812,58.54 L49.212,58.54 C41.94,58.54 39.096,53.32 39.096,47.092 C39.096,37.84 44.28,27.508 51.012,27.508 C57.744,27.508 62.928,37.84 62.928,47.092 C62.928,53.32 60.084,58.54 52.812,58.54 Z M51.012,52.132 C54.828,52.132 57.096,50.512 57.096,46.3 C57.096,38.344 53.424,33.34 51.012,33.34 C48.6,33.34 44.928,38.344 44.928,46.3 C44.928,50.512 47.196,52.132 51.012,52.132 Z M69.624,58.54 C67.392,58.54 65.628,56.74 65.628,54.544 C65.628,52.384 67.428,50.62 69.588,50.62 C71.856,50.62 73.692,52.348 73.692,54.58 C73.692,56.812 71.856,58.54 69.624,58.54 Z M67.644,28.048 L72.432,28.048 C72.9,28.048 73.692,28.12 73.692,28.732 C73.692,29.308 70.848,34.24 70.848,39.28 C70.848,42.88 71.424,47.2 71.424,47.92 C71.424,48.28 69.876,48.424 68.904,48.424 C67.248,48.424 65.628,37.192 65.628,33.304 C65.628,27.4 66.204,28.048 67.644,28.048 Z" id="GO!" fill="#FFFFFF"></path>
        </g>
    </g>
</svg>